<?xml version="1.0" encoding="utf-8"?>
<!-- Generator: Adobe Illustrator 19.0.0, SVG Export Plug-In . SVG Version: 6.00 Build 0)  -->
<svg version="1.1" id="Layer_1" xmlns="http://www.w3.org/2000/svg" xmlns:xlink="http://www.w3.org/1999/xlink" x="0px" y="0px"
	 viewBox="-109 111 500 500" style="enable-background:new -109 111 500 500;" xml:space="preserve">
<style type="text/css">
	.st0{fill:#088708;}
	.st1{fill:#00FA00;}
	.st2{fill:#0A6F0A;}
	.st3{fill:#00FE00;}
	.st4{fill:#01F501;}
	.st5{fill:#01F601;}
	.st6{fill:#01F701;}
	.st7{fill:#088608;}
	.st8{fill:#0D440D;}
	.st9{fill:#00F700;}
	.st10{fill:#0A790A;}
	.st11{fill:#03BE03;}
	.st12{fill:#088E08;}
	.st13{fill:#0B750A;}
	.st14{fill:#088808;}
</style>
<g>
	<g>
		<path class="st0" d="M242.5,290.5c28.2-1,56.5-1.3,85-1c0,1,0,2,0,3C299.4,290.5,271.1,289.9,242.5,290.5z"/>
	</g>
	<g>
		<path class="st1" d="M242.5,290.5c28.6-0.6,56.9,0,85,2c0,27.7,0,55.3,0,83c-3.3,0-6.7,0-10,0c0-25.3,0-50.7,0-76c-25,0-50,0-75,0
			C242.5,296.5,242.5,293.5,242.5,290.5z"/>
	</g>
	<g>
		<path class="st2" d="M242.5,299.5c25,0,50,0,75,0c0,25.3,0,50.7,0,76c-1-24.8-1.3-49.8-1-75C291.7,300.8,267,300.5,242.5,299.5z"
			/>
	</g>
	<g>
		<path class="st1" d="M99.5,332.5c3.3,0,6.7,0,10,0c-0.2,8.7,0,17.3,0.5,26c0.7-0.5,1.2-1.2,1.5-2c6.1-8,12.5-15.8,19-23.5
			c4.4-0.8,8.7-0.7,13,0.5c-7.5,9-14.9,18.2-22,27.5c7.5,8.7,14.9,17.5,22,26.5c-4.3,1.2-8.6,1.3-13,0.5
			c-5.9-6.2-11.4-12.7-16.5-19.5c-4.3,5.2-8.8,10.2-13.5,15C99.5,366.7,99.2,349.7,99.5,332.5z"/>
	</g>
	<g>
		<path class="st3" d="M252.5,332.5c3.3,0,6.7,0,10,0c0,8,0,16,0,24c-3.3,0-6.7,0-10,0C252.5,348.5,252.5,340.5,252.5,332.5z"/>
	</g>
	<g>
		<path class="st4" d="M283.5,332.5c3.7,0,7.3,0,11,0c0,18.7,0,37.3,0,56c-3.7,0-7.3,0-11,0c0-3.3,0-6.7,0-10c-7,0-14,0-21,0
			c0,3.3,0,6.7,0,10c-3.7,0-7.3,0-11,0c0-7,0-14,0-21c10.7,0,21.3,0,32,0C283.5,355.8,283.5,344.2,283.5,332.5z"/>
	</g>
	<g>
		<path class="st5" d="M12.5,332.5c1.8,1.1,3,2.7,3.5,5c6.4,16.7,12.9,33.4,19.5,50c-3.9,1.3-7.7,1.3-11.5,0
			c-3.1-10.2-6.8-20.2-11-30c-3.8,10.3-7.3,20.6-10.5,31c-3.7,0-7.3,0-11,0C-1.9,369.7,5.1,351,12.5,332.5z"/>
	</g>
	<g>
		<path class="st6" d="M66.5,332.5c2.1,2.2,3.6,4.9,4.5,8c6.1,15.9,12,31.9,17.5,48c-3.6,0.3-7.1,0-10.5-1c-3.5-10.1-7.1-20.1-11-30
			c-4.2,10.1-7.7,20.4-10.5,31c-3.7,0-7.3,0-11,0C51.7,369.5,58.7,350.9,66.5,332.5z"/>
	</g>
	<g>
		<path class="st7" d="M99.5,332.5c-0.3,17.2,0,34.2,1,51c-0.1,0.5-0.4,0.9-1,1C98.2,367,98.2,349.7,99.5,332.5z"/>
	</g>
	<g>
		<path class="st8" d="M109.5,332.5c0.7,8,1.3,16,2,24c-0.3,0.8-0.8,1.5-1.5,2C109.5,349.8,109.3,341.2,109.5,332.5z"/>
	</g>
	<g>
		<path class="st5" d="M174.5,332.5c1-0.1,1.8,0.2,2.5,1c7.1,18.3,14,36.6,20.5,55c-3.7,0-7.3,0-11,0c-3.2-10.4-6.7-20.7-10.5-31
			c-4.2,9.8-7.9,19.8-11,30c-3.8,1.3-7.6,1.3-11.5,0C160.8,369.3,167.8,350.9,174.5,332.5z"/>
	</g>
	<g>
		<path class="st9" d="M241.5,344.5c0,1.3,0,2.7,0,4c-3,0-6,0-9,0c-1.7-4.7-5-6.5-10-5.5c-3.6,2.2-4.8,5.3-3.5,9.5
			c0.9,1.2,2.1,2,3.5,2.5c17.5,1.3,23.4,10.1,17.5,26.5c-3.9,4.3-8.7,6.7-14.5,7c-0.3-3.4,0-6.7,1-10c4.7-1.8,6.2-5.1,4.5-10
			c-4.2-2.3-8.7-3.8-13.5-4.5c-8.7-4.8-11.5-12-8.5-21.5c7-10.7,16.2-12.9,27.5-6.5C239.1,338.4,240.8,341.2,241.5,344.5z"/>
	</g>
	<g>
		<path class="st10" d="M252.5,332.5c0,8,0,16,0,24c3.3,0,6.7,0,10,0c-3.5,1-7.1,1.3-11,1C251.2,349,251.5,340.6,252.5,332.5z"/>
	</g>
	<g>
		<path class="st11" d="M-36.5,345.5c0,0.3,0,0.7,0,1c-3,0-6,0-9,0c0.3,24.8,0,49.5-1,74c0-25,0-50,0-75
			C-43.2,345.5-39.8,345.5-36.5,345.5z"/>
	</g>
	<g>
		<path class="st3" d="M-36.5,346.5c0,25,0,50,0,75c24.7,0,49.3,0,74,0c0,3,0,6,0,9c-28.2,0.6-56.2,0-84-2c0-2.7,0-5.3,0-8
			c1-24.5,1.3-49.2,1-74C-42.5,346.5-39.5,346.5-36.5,346.5z"/>
	</g>
	<g>
		<path class="st12" d="M241.5,344.5c1,1.4,1.3,3.1,1,5c-3.5,0.3-6.9,0-10-1c3,0,6,0,9,0C241.5,347.2,241.5,345.8,241.5,344.5z"/>
	</g>
	<g>
		<path class="st13" d="M-36.5,345.5c1,24.8,1.3,49.8,1,75c24.5-0.3,48.8,0,73,1c-24.7,0-49.3,0-74,0c0-25,0-50,0-75
			C-36.5,346.2-36.5,345.8-36.5,345.5z"/>
	</g>
	<g>
		<path class="st14" d="M-46.5,428.5c27.8,2,55.8,2.6,84,2c-27.8,1-55.8,1.3-84,1C-46.5,430.5-46.5,429.5-46.5,428.5z"/>
	</g>
</g>
</svg>
