<svg width="374" height="143" viewBox="0 0 374 143" fill="none" xmlns="http://www.w3.org/2000/svg">
<path d="M289 1.11098C317.2 0.110984 345.5 -0.189016 374 0.110984C374 1.11098 374 2.11098 374 3.11098C345.9 1.11098 317.6 0.510984 289 1.11098Z" fill="#00FA00"/>
<path d="M289 1.11113C317.6 0.511129 345.9 1.11113 374 3.11113C374 30.8111 374 58.4111 374 86.1111C370.7 86.1111 367.3 86.1111 364 86.1111C364 60.8111 364 35.4111 364 10.1111C339 10.1111 314 10.1111 289 10.1111C289 7.11113 289 4.11113 289 1.11113Z" fill="#00FA00"/>
<path d="M289 10.1111C314 10.1111 339 10.1111 364 10.1111C364 35.4111 364 60.8111 364 86.1111C363 61.3111 362.7 36.3111 363 11.1111C338.2 11.4111 313.5 11.1111 289 10.1111Z" fill="#00FA00"/>
<path d="M146 43.111C149.3 43.111 152.7 43.111 156 43.111C155.8 51.811 156 60.411 156.5 69.111C157.2 68.611 157.7 67.911 158 67.111C164.1 59.111 170.5 51.311 177 43.611C181.4 42.811 185.7 42.911 190 44.111C182.5 53.111 175.1 62.311 168 71.611C175.5 80.311 182.9 89.111 190 98.111C185.7 99.311 181.4 99.411 177 98.611C171.1 92.411 165.6 85.911 160.5 79.111C156.2 84.311 151.7 89.311 147 94.111C146 77.311 145.7 60.311 146 43.111Z" fill="#00FA00"/>
<path d="M299 43.1111C302.3 43.1111 305.7 43.1111 309 43.1111C309 51.1111 309 59.1111 309 67.1111C305.7 67.1111 302.3 67.1111 299 67.1111C299 59.1111 299 51.1111 299 43.1111Z" fill="#00FE00"/>
<path d="M330 43.1111C333.7 43.1111 337.3 43.1111 341 43.1111C341 61.8111 341 80.4111 341 99.1111C337.3 99.1111 333.7 99.1111 330 99.1111C330 95.8111 330 92.4111 330 89.1111C323 89.1111 316 89.1111 309 89.1111C309 92.4111 309 95.8111 309 99.1111C305.3 99.1111 301.7 99.1111 298 99.1111C298 92.1111 298 85.1111 298 78.1111C308.7 78.1111 319.3 78.1111 330 78.1111C330 66.4111 330 54.8111 330 43.1111Z" fill="#01F501"/>
<path d="M59 43.1111C60.8 44.2111 62 45.8111 62.5 48.1111C68.9 64.8111 75.4 81.5111 82 98.1111C78.1 99.4111 74.3 99.4111 70.5 98.1111C67.4 87.9111 63.7 77.9111 59.5 68.1111C55.7 78.4111 52.2 88.7111 49 99.1111C45.3 99.1111 41.7 99.1111 38 99.1111C44.6 80.3111 51.6 61.6111 59 43.1111Z" fill="#01F601"/>
<path d="M113 43.1111C115.1 45.3111 116.6 48.0111 117.5 51.1111C123.6 67.0111 129.5 83.0111 135 99.1111C131.4 99.4111 127.9 99.1111 124.5 98.1111C121 88.0111 117.4 78.0111 113.5 68.1111C109.3 78.2111 105.8 88.5111 103 99.1111C99.3 99.1111 95.7 99.1111 92 99.1111C98.2 80.1111 105.2 61.5111 113 43.1111Z" fill="#01F701"/>
<path d="M146 43.1111C145.7 60.3111 146 77.3111 147 94.1111C146.9 94.6111 146.6 95.0111 146 95.1111C144.7 77.6111 144.7 60.3111 146 43.1111Z" fill="#00FA00"/>
<path d="M156 43.1111C156.7 51.1111 157.3 59.1111 158 67.1111C157.7 67.9111 157.2 68.6111 156.5 69.1111C156 60.4111 155.8 51.8111 156 43.1111Z" fill="#00FA00"/>
<path d="M221 43.1111C222 43.0111 222.8 43.3111 223.5 44.1111C230.6 62.4111 237.5 80.7111 244 99.1111C240.3 99.1111 236.7 99.1111 233 99.1111C229.8 88.7111 226.3 78.4111 222.5 68.1111C218.3 77.9111 214.6 87.9111 211.5 98.1111C207.7 99.4111 203.9 99.4111 200 98.1111C207.3 79.9111 214.3 61.5111 221 43.1111Z" fill="#01F601"/>
<path d="M288 55.111C288 56.411 288 57.811 288 59.111C285 59.111 282 59.111 279 59.111C277.3 54.411 274 52.611 269 53.611C265.4 55.811 264.2 58.911 265.5 63.111C266.4 64.311 267.6 65.111 269 65.611C286.5 66.911 292.4 75.711 286.5 92.111C282.6 96.411 277.8 98.811 272 99.111C271.7 95.711 272 92.411 273 89.111C277.7 87.311 279.2 84.011 277.5 79.111C273.3 76.811 268.8 75.311 264 74.611C255.3 69.811 252.5 62.611 255.5 53.111C262.5 42.411 271.7 40.211 283 46.611C285.6 49.011 287.3 51.811 288 55.111Z" fill="#00F700"/>
<path d="M299 43.1111C299 51.1111 299 59.1111 299 67.1111C302.3 67.1111 305.7 67.1111 309 67.1111C305.5 68.1111 301.9 68.4111 298 68.1111C297.7 59.6111 298 51.2111 299 43.1111Z" fill="#00FF00"/>
<path d="M10 56.1111C10 56.4111 10 56.8111 10 57.1111C7 57.1111 4 57.1111 1 57.1111C1.3 81.9111 1 106.611 0 131.111C0 106.111 0 81.1111 0 56.1111C3.3 56.1111 6.7 56.1111 10 56.1111Z" fill="#00FE00"/>
<path d="M10 57.1111C10 82.1111 10 107.111 10 132.111C34.7 132.111 59.3 132.111 84 132.111C84 135.111 84 138.111 84 141.111C55.8 141.711 27.8 141.111 0 139.111C0 136.411 0 133.811 0 131.111C1 106.611 1.3 81.9111 1 57.1111C4 57.1111 7 57.1111 10 57.1111Z" fill="#00FE00"/>
<path d="M10 56.1111C11 80.9111 11.3 105.911 11 131.111C35.5 130.811 59.8 131.111 84 132.111C59.3 132.111 34.7 132.111 10 132.111C10 107.111 10 82.1111 10 57.1111C10 56.8111 10 56.4111 10 56.1111Z" fill="#00FE00"/>
<path d="M0 139.111C27.8 141.111 55.8 141.711 84 141.111C56.2 142.111 28.2 142.411 0 142.111C0 141.111 0 140.111 0 139.111Z" fill="#00FE00"/>
</svg>
